<svg width="404" height="392" viewBox="0 0 404 392" fill="none" xmlns="http://www.w3.org/2000/svg">
<g clip-path="url(#clip0_1_52)">
<path d="M4 4L0 0L3.49691e-07 8L4 4Z" fill="#ABABFA"/>
<path d="M24 4L20 0V8L24 4Z" fill="#ABABFA"/>
<path d="M44 4L40 0V8L44 4Z" fill="#ABABFA"/>
<path d="M64 4L60 0V8L64 4Z" fill="#ABABFA"/>
<path d="M84 4L80 0V8L84 4Z" fill="#ABABFA"/>
<path d="M104 4L100 0V8L104 4Z" fill="#ABABFA"/>
<path d="M124 4L120 0V8L124 4Z" fill="#ABABFA"/>
<path d="M144 4L140 0V8L144 4Z" fill="#ABABFA"/>
<path d="M164 4L160 0V8L164 4Z" fill="#ABABFA"/>
<path d="M184 4L180 0V8L184 4Z" fill="#ABABFA"/>
<path d="M204 4L200 0V8L204 4Z" fill="#ABABFA"/>
<path d="M224 4L220 0V8L224 4Z" fill="#ABABFA"/>
<path d="M244 4L240 0V8L244 4Z" fill="#ABABFA"/>
<path d="M264 4L260 0V8L264 4Z" fill="#ABABFA"/>
<path d="M284 4L280 0V8L284 4Z" fill="#ABABFA"/>
<path d="M304 4L300 0V8L304 4Z" fill="#ABABFA"/>
<path d="M324 4L320 0V8L324 4Z" fill="#ABABFA"/>
<path d="M344 4L340 0V8L344 4Z" fill="#ABABFA"/>
<path d="M364 4L360 0V8L364 4Z" fill="#ABABFA"/>
<path d="M384 4L380 0V8L384 4Z" fill="#ABABFA"/>
<path d="M404 4L400 0V8L404 4Z" fill="#ABABFA"/>
<path d="M4 28L0 24L3.49691e-07 32L4 28Z" fill="#ABABFA"/>
<path d="M24 28L20 24V32L24 28Z" fill="#ABABFA"/>
<path d="M44 28L40 24V32L44 28Z" fill="#ABABFA"/>
<path d="M64 28L60 24V32L64 28Z" fill="#ABABFA"/>
<path d="M84 28L80 24V32L84 28Z" fill="#ABABFA"/>
<path d="M104 28L100 24V32L104 28Z" fill="#ABABFA"/>
<path d="M124 28L120 24V32L124 28Z" fill="#ABABFA"/>
<path d="M144 28L140 24V32L144 28Z" fill="#ABABFA"/>
<path d="M164 28L160 24V32L164 28Z" fill="#ABABFA"/>
<path d="M184 28L180 24V32L184 28Z" fill="#ABABFA"/>
<path d="M204 28L200 24V32L204 28Z" fill="#ABABFA"/>
<path d="M224 28L220 24V32L224 28Z" fill="#ABABFA"/>
<path d="M244 28L240 24V32L244 28Z" fill="#ABABFA"/>
<path d="M264 28L260 24V32L264 28Z" fill="#ABABFA"/>
<path d="M284 28L280 24V32L284 28Z" fill="#ABABFA"/>
<path d="M304 28L300 24V32L304 28Z" fill="#ABABFA"/>
<path d="M324 28L320 24V32L324 28Z" fill="#ABABFA"/>
<path d="M344 28L340 24V32L344 28Z" fill="#ABABFA"/>
<path d="M364 28L360 24V32L364 28Z" fill="#ABABFA"/>
<path d="M384 28L380 24V32L384 28Z" fill="#ABABFA"/>
<path d="M404 28L400 24V32L404 28Z" fill="#ABABFA"/>
<path d="M4 52L0 48L3.49691e-07 56L4 52Z" fill="#ABABFA"/>
<path d="M24 52L20 48V56L24 52Z" fill="#ABABFA"/>
<path d="M44 52L40 48V56L44 52Z" fill="#ABABFA"/>
<path d="M64 52L60 48V56L64 52Z" fill="#ABABFA"/>
<path d="M84 52L80 48V56L84 52Z" fill="#ABABFA"/>
<path d="M104 52L100 48V56L104 52Z" fill="#ABABFA"/>
<path d="M124 52L120 48V56L124 52Z" fill="#ABABFA"/>
<path d="M144 52L140 48V56L144 52Z" fill="#ABABFA"/>
<path d="M164 52L160 48V56L164 52Z" fill="#ABABFA"/>
<path d="M184 52L180 48V56L184 52Z" fill="#ABABFA"/>
<path d="M204 52L200 48V56L204 52Z" fill="#ABABFA"/>
<path d="M224 52L220 48V56L224 52Z" fill="#ABABFA"/>
<path d="M244 52L240 48V56L244 52Z" fill="#ABABFA"/>
<path d="M264 52L260 48V56L264 52Z" fill="#ABABFA"/>
<path d="M284 52L280 48V56L284 52Z" fill="#ABABFA"/>
<path d="M304 52L300 48V56L304 52Z" fill="#ABABFA"/>
<path d="M324 52L320 48V56L324 52Z" fill="#ABABFA"/>
<path d="M344 52L340 48V56L344 52Z" fill="#ABABFA"/>
<path d="M364 52L360 48V56L364 52Z" fill="#ABABFA"/>
<path d="M384 52L380 48V56L384 52Z" fill="#ABABFA"/>
<path d="M404 52L400 48V56L404 52Z" fill="#ABABFA"/>
<path d="M4 76L0 72L3.49691e-07 80L4 76Z" fill="#ABABFA"/>
<path d="M24 76L20 72V80L24 76Z" fill="#ABABFA"/>
<path d="M44 76L40 72V80L44 76Z" fill="#ABABFA"/>
<path d="M64 76L60 72V80L64 76Z" fill="#ABABFA"/>
<path d="M84 76L80 72V80L84 76Z" fill="#ABABFA"/>
<path d="M104 76L100 72V80L104 76Z" fill="#ABABFA"/>
<path d="M124 76L120 72V80L124 76Z" fill="#ABABFA"/>
<path d="M144 76L140 72V80L144 76Z" fill="#ABABFA"/>
<path d="M164 76L160 72V80L164 76Z" fill="#ABABFA"/>
<path d="M184 76L180 72V80L184 76Z" fill="#ABABFA"/>
<path d="M204 76L200 72V80L204 76Z" fill="#ABABFA"/>
<path d="M224 76L220 72V80L224 76Z" fill="#ABABFA"/>
<path d="M244 76L240 72V80L244 76Z" fill="#ABABFA"/>
<path d="M264 76L260 72V80L264 76Z" fill="#ABABFA"/>
<path d="M284 76L280 72V80L284 76Z" fill="#ABABFA"/>
<path d="M304 76L300 72V80L304 76Z" fill="#ABABFA"/>
<path d="M324 76L320 72V80L324 76Z" fill="#ABABFA"/>
<path d="M344 76L340 72V80L344 76Z" fill="#ABABFA"/>
<path d="M364 76L360 72V80L364 76Z" fill="#ABABFA"/>
<path d="M384 76L380 72V80L384 76Z" fill="#ABABFA"/>
<path d="M404 76L400 72V80L404 76Z" fill="#ABABFA"/>
<path d="M4 100L0 96L3.49691e-07 104L4 100Z" fill="#ABABFA"/>
<path d="M24 100L20 96V104L24 100Z" fill="#ABABFA"/>
<path d="M44 100L40 96V104L44 100Z" fill="#ABABFA"/>
<path d="M64 100L60 96V104L64 100Z" fill="#ABABFA"/>
<path d="M84 100L80 96V104L84 100Z" fill="#ABABFA"/>
<path d="M104 100L100 96V104L104 100Z" fill="#ABABFA"/>
<path d="M124 100L120 96V104L124 100Z" fill="#ABABFA"/>
<path d="M144 100L140 96V104L144 100Z" fill="#ABABFA"/>
<path d="M164 100L160 96V104L164 100Z" fill="#ABABFA"/>
<path d="M184 100L180 96V104L184 100Z" fill="#ABABFA"/>
<path d="M204 100L200 96V104L204 100Z" fill="#ABABFA"/>
<path d="M224 100L220 96V104L224 100Z" fill="#ABABFA"/>
<path d="M244 100L240 96V104L244 100Z" fill="#ABABFA"/>
<path d="M264 100L260 96V104L264 100Z" fill="#ABABFA"/>
<path d="M284 100L280 96V104L284 100Z" fill="#ABABFA"/>
<path d="M304 100L300 96V104L304 100Z" fill="#ABABFA"/>
<path d="M324 100L320 96V104L324 100Z" fill="#ABABFA"/>
<path d="M344 100L340 96V104L344 100Z" fill="#ABABFA"/>
<path d="M364 100L360 96V104L364 100Z" fill="#ABABFA"/>
<path d="M384 100L380 96V104L384 100Z" fill="#ABABFA"/>
<path d="M404 100L400 96V104L404 100Z" fill="#ABABFA"/>
<path d="M4 124L0 120L3.49691e-07 128L4 124Z" fill="#ABABFA"/>
<path d="M24 124L20 120V128L24 124Z" fill="#ABABFA"/>
<path d="M44 124L40 120V128L44 124Z" fill="#ABABFA"/>
<path d="M64 124L60 120V128L64 124Z" fill="#ABABFA"/>
<path d="M84 124L80 120V128L84 124Z" fill="#ABABFA"/>
<path d="M104 124L100 120V128L104 124Z" fill="#ABABFA"/>
<path d="M124 124L120 120V128L124 124Z" fill="#ABABFA"/>
<path d="M144 124L140 120V128L144 124Z" fill="#ABABFA"/>
<path d="M164 124L160 120V128L164 124Z" fill="#ABABFA"/>
<path d="M184 124L180 120V128L184 124Z" fill="#ABABFA"/>
<path d="M204 124L200 120V128L204 124Z" fill="#ABABFA"/>
<path d="M224 124L220 120V128L224 124Z" fill="#ABABFA"/>
<path d="M244 124L240 120V128L244 124Z" fill="#ABABFA"/>
<path d="M264 124L260 120V128L264 124Z" fill="#ABABFA"/>
<path d="M284 124L280 120V128L284 124Z" fill="#ABABFA"/>
<path d="M304 124L300 120V128L304 124Z" fill="#ABABFA"/>
<path d="M324 124L320 120V128L324 124Z" fill="#ABABFA"/>
<path d="M344 124L340 120V128L344 124Z" fill="#ABABFA"/>
<path d="M364 124L360 120V128L364 124Z" fill="#ABABFA"/>
<path d="M384 124L380 120V128L384 124Z" fill="#ABABFA"/>
<path d="M404 124L400 120V128L404 124Z" fill="#ABABFA"/>
<path d="M4 148L0 144L3.49691e-07 152L4 148Z" fill="#ABABFA"/>
<path d="M24 148L20 144V152L24 148Z" fill="#ABABFA"/>
<path d="M44 148L40 144V152L44 148Z" fill="#ABABFA"/>
<path d="M64 148L60 144V152L64 148Z" fill="#ABABFA"/>
<path d="M84 148L80 144V152L84 148Z" fill="#ABABFA"/>
<path d="M104 148L100 144V152L104 148Z" fill="#ABABFA"/>
<path d="M124 148L120 144V152L124 148Z" fill="#ABABFA"/>
<path d="M144 148L140 144V152L144 148Z" fill="#ABABFA"/>
<path d="M164 148L160 144V152L164 148Z" fill="#ABABFA"/>
<path d="M184 148L180 144V152L184 148Z" fill="#ABABFA"/>
<path d="M204 148L200 144V152L204 148Z" fill="#ABABFA"/>
<path d="M224 148L220 144V152L224 148Z" fill="#ABABFA"/>
<path d="M244 148L240 144V152L244 148Z" fill="#ABABFA"/>
<path d="M264 148L260 144V152L264 148Z" fill="#ABABFA"/>
<path d="M284 148L280 144V152L284 148Z" fill="#ABABFA"/>
<path d="M304 148L300 144V152L304 148Z" fill="#ABABFA"/>
<path d="M324 148L320 144V152L324 148Z" fill="#ABABFA"/>
<path d="M344 148L340 144V152L344 148Z" fill="#ABABFA"/>
<path d="M364 148L360 144V152L364 148Z" fill="#ABABFA"/>
<path d="M384 148L380 144V152L384 148Z" fill="#ABABFA"/>
<path d="M404 148L400 144V152L404 148Z" fill="#ABABFA"/>
<path d="M4 172L0 168L3.49691e-07 176L4 172Z" fill="#ABABFA"/>
<path d="M24 172L20 168V176L24 172Z" fill="#ABABFA"/>
<path d="M44 172L40 168V176L44 172Z" fill="#ABABFA"/>
<path d="M64 172L60 168V176L64 172Z" fill="#ABABFA"/>
<path d="M84 172L80 168V176L84 172Z" fill="#ABABFA"/>
<path d="M104 172L100 168V176L104 172Z" fill="#ABABFA"/>
<path d="M124 172L120 168V176L124 172Z" fill="#ABABFA"/>
<path d="M144 172L140 168V176L144 172Z" fill="#ABABFA"/>
<path d="M164 172L160 168V176L164 172Z" fill="#ABABFA"/>
<path d="M184 172L180 168V176L184 172Z" fill="#ABABFA"/>
<path d="M204 172L200 168V176L204 172Z" fill="#ABABFA"/>
<path d="M224 172L220 168V176L224 172Z" fill="#ABABFA"/>
<path d="M244 172L240 168V176L244 172Z" fill="#ABABFA"/>
<path d="M264 172L260 168V176L264 172Z" fill="#ABABFA"/>
<path d="M284 172L280 168V176L284 172Z" fill="#ABABFA"/>
<path d="M304 172L300 168V176L304 172Z" fill="#ABABFA"/>
<path d="M324 172L320 168V176L324 172Z" fill="#ABABFA"/>
<path d="M344 172L340 168V176L344 172Z" fill="#ABABFA"/>
<path d="M364 172L360 168V176L364 172Z" fill="#ABABFA"/>
<path d="M384 172L380 168V176L384 172Z" fill="#ABABFA"/>
<path d="M404 172L400 168V176L404 172Z" fill="#ABABFA"/>
<path d="M4 196L0 192L3.49691e-07 200L4 196Z" fill="#ABABFA"/>
<path d="M24 196L20 192V200L24 196Z" fill="#ABABFA"/>
<path d="M44 196L40 192V200L44 196Z" fill="#ABABFA"/>
<path d="M64 196L60 192V200L64 196Z" fill="#ABABFA"/>
<path d="M84 196L80 192V200L84 196Z" fill="#ABABFA"/>
<path d="M104 196L100 192V200L104 196Z" fill="#ABABFA"/>
<path d="M124 196L120 192V200L124 196Z" fill="#ABABFA"/>
<path d="M144 196L140 192V200L144 196Z" fill="#ABABFA"/>
<path d="M164 196L160 192V200L164 196Z" fill="#ABABFA"/>
<path d="M184 196L180 192V200L184 196Z" fill="#ABABFA"/>
<path d="M204 196L200 192V200L204 196Z" fill="#ABABFA"/>
<path d="M224 196L220 192V200L224 196Z" fill="#ABABFA"/>
<path d="M244 196L240 192V200L244 196Z" fill="#ABABFA"/>
<path d="M264 196L260 192V200L264 196Z" fill="#ABABFA"/>
<path d="M284 196L280 192V200L284 196Z" fill="#ABABFA"/>
<path d="M304 196L300 192V200L304 196Z" fill="#ABABFA"/>
<path d="M324 196L320 192V200L324 196Z" fill="#ABABFA"/>
<path d="M344 196L340 192V200L344 196Z" fill="#ABABFA"/>
<path d="M364 196L360 192V200L364 196Z" fill="#ABABFA"/>
<path d="M384 196L380 192V200L384 196Z" fill="#ABABFA"/>
<path d="M404 196L400 192V200L404 196Z" fill="#ABABFA"/>
<path d="M4 220L0 216L3.49691e-07 224L4 220Z" fill="#ABABFA"/>
<path d="M24 220L20 216V224L24 220Z" fill="#ABABFA"/>
<path d="M44 220L40 216V224L44 220Z" fill="#ABABFA"/>
<path d="M64 220L60 216V224L64 220Z" fill="#ABABFA"/>
<path d="M84 220L80 216V224L84 220Z" fill="#ABABFA"/>
<path d="M104 220L100 216V224L104 220Z" fill="#ABABFA"/>
<path d="M124 220L120 216V224L124 220Z" fill="#ABABFA"/>
<path d="M144 220L140 216V224L144 220Z" fill="#ABABFA"/>
<path d="M164 220L160 216V224L164 220Z" fill="#ABABFA"/>
<path d="M184 220L180 216V224L184 220Z" fill="#ABABFA"/>
<path d="M204 220L200 216V224L204 220Z" fill="#ABABFA"/>
<path d="M224 220L220 216V224L224 220Z" fill="#ABABFA"/>
<path d="M244 220L240 216V224L244 220Z" fill="#ABABFA"/>
<path d="M264 220L260 216V224L264 220Z" fill="#ABABFA"/>
<path d="M284 220L280 216V224L284 220Z" fill="#ABABFA"/>
<path d="M304 220L300 216V224L304 220Z" fill="#ABABFA"/>
<path d="M324 220L320 216V224L324 220Z" fill="#ABABFA"/>
<path d="M344 220L340 216V224L344 220Z" fill="#ABABFA"/>
<path d="M364 220L360 216V224L364 220Z" fill="#ABABFA"/>
<path d="M384 220L380 216V224L384 220Z" fill="#ABABFA"/>
<path d="M404 220L400 216V224L404 220Z" fill="#ABABFA"/>
<path d="M4 244L0 240L3.49691e-07 248L4 244Z" fill="#ABABFA"/>
<path d="M24 244L20 240V248L24 244Z" fill="#ABABFA"/>
<path d="M44 244L40 240V248L44 244Z" fill="#ABABFA"/>
<path d="M64 244L60 240V248L64 244Z" fill="#ABABFA"/>
<path d="M84 244L80 240V248L84 244Z" fill="#ABABFA"/>
<path d="M104 244L100 240V248L104 244Z" fill="#ABABFA"/>
<path d="M124 244L120 240V248L124 244Z" fill="#ABABFA"/>
<path d="M144 244L140 240V248L144 244Z" fill="#ABABFA"/>
<path d="M164 244L160 240V248L164 244Z" fill="#ABABFA"/>
<path d="M184 244L180 240V248L184 244Z" fill="#ABABFA"/>
<path d="M204 244L200 240V248L204 244Z" fill="#ABABFA"/>
<path d="M224 244L220 240V248L224 244Z" fill="#ABABFA"/>
<path d="M244 244L240 240V248L244 244Z" fill="#ABABFA"/>
<path d="M264 244L260 240V248L264 244Z" fill="#ABABFA"/>
<path d="M284 244L280 240V248L284 244Z" fill="#ABABFA"/>
<path d="M304 244L300 240V248L304 244Z" fill="#ABABFA"/>
<path d="M324 244L320 240V248L324 244Z" fill="#ABABFA"/>
<path d="M344 244L340 240V248L344 244Z" fill="#ABABFA"/>
<path d="M364 244L360 240V248L364 244Z" fill="#ABABFA"/>
<path d="M384 244L380 240V248L384 244Z" fill="#ABABFA"/>
<path d="M404 244L400 240V248L404 244Z" fill="#ABABFA"/>
<path d="M4 268L0 264L3.49691e-07 272L4 268Z" fill="#ABABFA"/>
<path d="M24 268L20 264V272L24 268Z" fill="#ABABFA"/>
<path d="M44 268L40 264V272L44 268Z" fill="#ABABFA"/>
<path d="M64 268L60 264V272L64 268Z" fill="#ABABFA"/>
<path d="M84 268L80 264V272L84 268Z" fill="#ABABFA"/>
<path d="M104 268L100 264V272L104 268Z" fill="#ABABFA"/>
<path d="M124 268L120 264V272L124 268Z" fill="#ABABFA"/>
<path d="M144 268L140 264V272L144 268Z" fill="#ABABFA"/>
<path d="M164 268L160 264V272L164 268Z" fill="#ABABFA"/>
<path d="M184 268L180 264V272L184 268Z" fill="#ABABFA"/>
<path d="M204 268L200 264V272L204 268Z" fill="#ABABFA"/>
<path d="M224 268L220 264V272L224 268Z" fill="#ABABFA"/>
<path d="M244 268L240 264V272L244 268Z" fill="#ABABFA"/>
<path d="M264 268L260 264V272L264 268Z" fill="#ABABFA"/>
<path d="M284 268L280 264V272L284 268Z" fill="#ABABFA"/>
<path d="M304 268L300 264V272L304 268Z" fill="#ABABFA"/>
<path d="M324 268L320 264V272L324 268Z" fill="#ABABFA"/>
<path d="M344 268L340 264V272L344 268Z" fill="#ABABFA"/>
<path d="M364 268L360 264V272L364 268Z" fill="#ABABFA"/>
<path d="M384 268L380 264V272L384 268Z" fill="#ABABFA"/>
<path d="M404 268L400 264V272L404 268Z" fill="#ABABFA"/>
<path d="M4 292L0 288L3.49691e-07 296L4 292Z" fill="#ABABFA"/>
<path d="M24 292L20 288V296L24 292Z" fill="#ABABFA"/>
<path d="M44 292L40 288V296L44 292Z" fill="#ABABFA"/>
<path d="M64 292L60 288V296L64 292Z" fill="#ABABFA"/>
<path d="M84 292L80 288V296L84 292Z" fill="#ABABFA"/>
<path d="M104 292L100 288V296L104 292Z" fill="#ABABFA"/>
<path d="M124 292L120 288V296L124 292Z" fill="#ABABFA"/>
<path d="M144 292L140 288V296L144 292Z" fill="#ABABFA"/>
<path d="M164 292L160 288V296L164 292Z" fill="#ABABFA"/>
<path d="M184 292L180 288V296L184 292Z" fill="#ABABFA"/>
<path d="M204 292L200 288V296L204 292Z" fill="#ABABFA"/>
<path d="M224 292L220 288V296L224 292Z" fill="#ABABFA"/>
<path d="M244 292L240 288V296L244 292Z" fill="#ABABFA"/>
<path d="M264 292L260 288V296L264 292Z" fill="#ABABFA"/>
<path d="M284 292L280 288V296L284 292Z" fill="#ABABFA"/>
<path d="M304 292L300 288V296L304 292Z" fill="#ABABFA"/>
<path d="M324 292L320 288V296L324 292Z" fill="#ABABFA"/>
<path d="M344 292L340 288V296L344 292Z" fill="#ABABFA"/>
<path d="M364 292L360 288V296L364 292Z" fill="#ABABFA"/>
<path d="M384 292L380 288V296L384 292Z" fill="#ABABFA"/>
<path d="M404 292L400 288V296L404 292Z" fill="#ABABFA"/>
<path d="M4 316L0 312L3.49691e-07 320L4 316Z" fill="#ABABFA"/>
<path d="M24 316L20 312V320L24 316Z" fill="#ABABFA"/>
<path d="M44 316L40 312V320L44 316Z" fill="#ABABFA"/>
<path d="M64 316L60 312V320L64 316Z" fill="#ABABFA"/>
<path d="M84 316L80 312V320L84 316Z" fill="#ABABFA"/>
<path d="M104 316L100 312V320L104 316Z" fill="#ABABFA"/>
<path d="M124 316L120 312V320L124 316Z" fill="#ABABFA"/>
<path d="M144 316L140 312V320L144 316Z" fill="#ABABFA"/>
<path d="M164 316L160 312V320L164 316Z" fill="#ABABFA"/>
<path d="M184 316L180 312V320L184 316Z" fill="#ABABFA"/>
<path d="M204 316L200 312V320L204 316Z" fill="#ABABFA"/>
<path d="M224 316L220 312V320L224 316Z" fill="#ABABFA"/>
<path d="M244 316L240 312V320L244 316Z" fill="#ABABFA"/>
<path d="M264 316L260 312V320L264 316Z" fill="#ABABFA"/>
<path d="M284 316L280 312V320L284 316Z" fill="#ABABFA"/>
<path d="M304 316L300 312V320L304 316Z" fill="#ABABFA"/>
<path d="M324 316L320 312V320L324 316Z" fill="#ABABFA"/>
<path d="M344 316L340 312V320L344 316Z" fill="#ABABFA"/>
<path d="M364 316L360 312V320L364 316Z" fill="#ABABFA"/>
<path d="M384 316L380 312V320L384 316Z" fill="#ABABFA"/>
<path d="M404 316L400 312V320L404 316Z" fill="#ABABFA"/>
<path d="M4 340L0 336L3.49691e-07 344L4 340Z" fill="#ABABFA"/>
<path d="M24 340L20 336V344L24 340Z" fill="#ABABFA"/>
<path d="M44 340L40 336V344L44 340Z" fill="#ABABFA"/>
<path d="M64 340L60 336V344L64 340Z" fill="#ABABFA"/>
<path d="M84 340L80 336V344L84 340Z" fill="#ABABFA"/>
<path d="M104 340L100 336V344L104 340Z" fill="#ABABFA"/>
<path d="M124 340L120 336V344L124 340Z" fill="#ABABFA"/>
<path d="M144 340L140 336V344L144 340Z" fill="#ABABFA"/>
<path d="M164 340L160 336V344L164 340Z" fill="#ABABFA"/>
<path d="M184 340L180 336V344L184 340Z" fill="#ABABFA"/>
<path d="M204 340L200 336V344L204 340Z" fill="#ABABFA"/>
<path d="M224 340L220 336V344L224 340Z" fill="#ABABFA"/>
<path d="M244 340L240 336V344L244 340Z" fill="#ABABFA"/>
<path d="M264 340L260 336V344L264 340Z" fill="#ABABFA"/>
<path d="M284 340L280 336V344L284 340Z" fill="#ABABFA"/>
<path d="M304 340L300 336V344L304 340Z" fill="#ABABFA"/>
<path d="M324 340L320 336V344L324 340Z" fill="#ABABFA"/>
<path d="M344 340L340 336V344L344 340Z" fill="#ABABFA"/>
<path d="M364 340L360 336V344L364 340Z" fill="#ABABFA"/>
<path d="M384 340L380 336V344L384 340Z" fill="#ABABFA"/>
<path d="M404 340L400 336V344L404 340Z" fill="#ABABFA"/>
<path d="M4 364L0 360L3.49691e-07 368L4 364Z" fill="#ABABFA"/>
<path d="M24 364L20 360V368L24 364Z" fill="#ABABFA"/>
<path d="M44 364L40 360V368L44 364Z" fill="#ABABFA"/>
<path d="M64 364L60 360V368L64 364Z" fill="#ABABFA"/>
<path d="M84 364L80 360V368L84 364Z" fill="#ABABFA"/>
<path d="M104 364L100 360V368L104 364Z" fill="#ABABFA"/>
<path d="M124 364L120 360V368L124 364Z" fill="#ABABFA"/>
<path d="M144 364L140 360V368L144 364Z" fill="#ABABFA"/>
<path d="M164 364L160 360V368L164 364Z" fill="#ABABFA"/>
<path d="M184 364L180 360V368L184 364Z" fill="#ABABFA"/>
<path d="M204 364L200 360V368L204 364Z" fill="#ABABFA"/>
<path d="M224 364L220 360V368L224 364Z" fill="#ABABFA"/>
<path d="M244 364L240 360V368L244 364Z" fill="#ABABFA"/>
<path d="M264 364L260 360V368L264 364Z" fill="#ABABFA"/>
<path d="M284 364L280 360V368L284 364Z" fill="#ABABFA"/>
<path d="M304 364L300 360V368L304 364Z" fill="#ABABFA"/>
<path d="M324 364L320 360V368L324 364Z" fill="#ABABFA"/>
<path d="M344 364L340 360V368L344 364Z" fill="#ABABFA"/>
<path d="M364 364L360 360V368L364 364Z" fill="#ABABFA"/>
<path d="M384 364L380 360V368L384 364Z" fill="#ABABFA"/>
<path d="M404 364L400 360V368L404 364Z" fill="#ABABFA"/>
<path d="M4 388L0 384L3.49691e-07 392L4 388Z" fill="#ABABFA"/>
<path d="M24 388L20 384V392L24 388Z" fill="#ABABFA"/>
<path d="M44 388L40 384V392L44 388Z" fill="#ABABFA"/>
<path d="M64 388L60 384V392L64 388Z" fill="#ABABFA"/>
<path d="M84 388L80 384V392L84 388Z" fill="#ABABFA"/>
<path d="M104 388L100 384V392L104 388Z" fill="#ABABFA"/>
<path d="M124 388L120 384V392L124 388Z" fill="#ABABFA"/>
<path d="M144 388L140 384V392L144 388Z" fill="#ABABFA"/>
<path d="M164 388L160 384V392L164 388Z" fill="#ABABFA"/>
<path d="M184 388L180 384V392L184 388Z" fill="#ABABFA"/>
<path d="M204 388L200 384V392L204 388Z" fill="#ABABFA"/>
<path d="M224 388L220 384V392L224 388Z" fill="#ABABFA"/>
<path d="M244 388L240 384V392L244 388Z" fill="#ABABFA"/>
<path d="M264 388L260 384V392L264 388Z" fill="#ABABFA"/>
<path d="M284 388L280 384V392L284 388Z" fill="#ABABFA"/>
<path d="M304 388L300 384V392L304 388Z" fill="#ABABFA"/>
<path d="M324 388L320 384V392L324 388Z" fill="#ABABFA"/>
<path d="M344 388L340 384V392L344 388Z" fill="#ABABFA"/>
<path d="M364 388L360 384V392L364 388Z" fill="#ABABFA"/>
<path d="M384 388L380 384V392L384 388Z" fill="#ABABFA"/>
<path d="M404 388L400 384V392L404 388Z" fill="#ABABFA"/>
</g>
<defs>
<clipPath id="clip0_1_52">
<rect width="404" height="392" fill="white"/>
</clipPath>
</defs>
</svg>
